<?xml version="1.0" standalone="no"?>
<!DOCTYPE svg PUBLIC "-//W3C//DTD SVG 20010904//EN"
 "http://www.w3.org/TR/2001/REC-SVG-20010904/DTD/svg10.dtd">
<svg version="1.0" xmlns="http://www.w3.org/2000/svg"
 width="200.000000pt" height="200.000000pt" viewBox="0 0 200.000000 200.000000"
 preserveAspectRatio="xMidYMid meet">
<metadata>
Created by potrace 1.11, written by Peter Selinger 2001-2013
</metadata>
<g transform="translate(0.000000,200.000000) scale(0.100000,-0.100000)"
fill="#000000" stroke="none">
<path d="M1187 1894 c-4 -4 -7 -18 -7 -30 0 -18 -7 -25 -27 -30 -66 -15 -139
-37 -146 -44 -5 -4 4 -32 20 -61 15 -30 31 -65 35 -79 6 -22 7 -22 4 5 -2 17
-4 35 -6 40 -1 6 -2 25 -1 43 1 37 17 43 24 10 l4 -23 2 23 c1 18 7 22 35 22
24 0 36 -5 39 -17 4 -17 5 -17 6 0 1 13 10 17 45 17 34 0 46 -4 49 -17 4 -17
5 -17 6 0 1 13 10 17 41 17 22 0 40 -5 40 -11 0 -5 -5 -7 -10 -4 -7 4 -9 -5
-5 -26 8 -45 15 -50 15 -11 0 18 4 32 8 32 5 0 6 14 4 31 -4 24 -2 30 8 24 8
-5 11 -4 7 2 -7 10 -77 26 -127 28 -20 1 -24 6 -25 30 0 29 -22 45 -38 29z
m-27 -79 c-11 -14 -10 -14 15 -5 19 7 31 7 40 0 9 -7 16 -6 24 4 9 11 19 13
37 5 14 -5 37 -9 50 -9 16 0 24 -5 22 -12 -3 -8 -33 -14 -88 -16 -78 -3 -82
-2 -69 15 13 17 13 17 -7 1 -11 -10 -34 -18 -50 -17 -25 0 -26 2 -9 9 16 7 17
9 3 9 -9 1 -20 -4 -24 -10 -3 -6 -17 -9 -30 -6 -22 4 -24 1 -24 -37 l-1 -41
-19 35 c-18 35 -18 35 3 47 12 7 43 15 70 19 26 4 50 11 53 15 3 5 8 9 11 9 3
0 0 -7 -7 -15z"/>
<path d="M1240 1800 c0 -5 7 -7 15 -4 8 4 15 8 15 10 0 2 -7 4 -15 4 -8 0 -15
-4 -15 -10z"/>
<path d="M255 1872 c-3 -3 -5 -148 -5 -322 l0 -317 298 -1 c163 0 306 -1 318
-1 20 -1 20 -4 20 -316 -1 -203 3 -315 9 -316 40 -4 618 -3 624 1 4 3 7 147 7
320 l-1 315 -310 2 c-170 1 -313 2 -317 2 -5 1 -8 144 -8 319 l0 319 -315 0
c-173 0 -317 -2 -320 -5z"/>
<path d="M1395 1796 c1 -12 -2 -27 -8 -34 -7 -9 -1 -11 28 -7 32 4 36 2 30
-13 -4 -9 -8 -28 -10 -42 -1 -14 -7 -38 -13 -53 -7 -15 -11 -33 -9 -39 1 -6
-7 -14 -18 -17 -35 -10 -28 -31 9 -31 l35 0 32 101 32 100 -24 24 c-13 14 -38
26 -55 28 -26 3 -30 1 -29 -17z"/>
<path d="M1260 1639 l-5 -96 28 8 c25 7 27 5 26 -19 0 -23 -2 -24 -8 -8 -7 19
-8 19 -13 -2 -6 -20 -12 -22 -87 -22 -79 0 -81 1 -81 24 0 13 6 27 13 29 6 3
3 6 -8 6 -17 1 -21 7 -19 34 1 26 0 27 -3 4 -5 -31 -23 -27 -24 6 0 12 -3 16
-6 9 -6 -16 19 -72 30 -65 5 3 7 -11 4 -30 -4 -30 -1 -38 15 -43 11 -3 22 -3
25 0 4 3 -2 7 -13 8 -10 1 22 4 71 8 56 3 95 2 104 -5 12 -8 13 2 8 65 -3 41
-2 64 2 50 l7 -25 6 27 c3 15 1 25 -3 22 -5 -3 -9 1 -9 8 0 9 -3 9 -10 -2 -5
-8 -10 -27 -10 -42 0 -18 -5 -28 -15 -28 -11 0 -15 19 -17 88 l-3 87 -5 -96z"/>
<path d="M1092 1680 c0 -19 2 -27 5 -17 2 9 2 25 0 35 -3 9 -5 1 -5 -18z"/>
<path d="M1320 1690 c0 -11 4 -20 9 -20 5 0 7 9 4 20 -3 11 -7 20 -9 20 -2 0
-4 -9 -4 -20z"/>
<path d="M1173 1635 c0 -38 2 -53 4 -32 2 20 2 52 0 70 -2 17 -4 1 -4 -38z"/>
<path d="M1160 1550 c20 -13 33 -13 25 0 -3 6 -14 10 -23 10 -15 0 -15 -2 -2
-10z"/>
<path d="M1086 1514 c-8 -21 -8 -39 1 -30 8 7 15 46 9 46 -2 0 -7 -7 -10 -16z"/>
<path d="M1280 1475 c-11 -13 -11 -18 0 -28 10 -9 11 -9 6 1 -4 7 -2 19 4 27
7 8 10 15 7 15 -2 0 -10 -7 -17 -15z"/>
<path d="M1182 1473 c10 -3 18 -17 21 -36 l4 -32 1 32 c2 26 7 32 30 36 15 2
5 4 -23 4 -27 -1 -42 -2 -33 -4z"/>
<path d="M1074 1456 c-3 -8 -4 -23 -2 -33 3 -11 6 -6 9 15 6 34 2 42 -7 18z"/>
<path d="M1322 1445 c0 -16 2 -22 5 -12 2 9 2 23 0 30 -3 6 -5 -1 -5 -18z"/>
<path d="M1123 1425 c0 -22 2 -30 4 -17 2 12 2 30 0 40 -3 9 -5 -1 -4 -23z"/>
<path d="M1281 1393 c-1 -23 3 -44 7 -47 4 -2 6 12 4 32 -5 56 -10 62 -11 15z"/>
<path d="M1066 1378 c-3 -13 -5 -39 -5 -58 1 -27 3 -22 9 20 9 58 7 77 -4 38z"/>
<path d="M1200 1336 c0 -42 -4 -66 -12 -69 -8 -3 -6 -6 5 -6 15 -1 17 9 17 69
0 39 -2 70 -5 70 -3 0 -5 -29 -5 -64z"/>
<path d="M1332 1360 c0 -19 2 -27 5 -17 2 9 2 25 0 35 -3 9 -5 1 -5 -18z"/>
<path d="M1288 1299 c4 -27 2 -29 -26 -29 -17 0 -33 -4 -36 -9 -4 -5 2 -8 11
-6 71 14 70 14 65 40 -6 36 -19 40 -14 4z"/>
<path d="M1111 1298 c-1 -12 -7 -16 -18 -12 -17 5 -17 5 0 -6 24 -16 36 -9 26
15 -6 17 -8 17 -8 3z"/>
<path d="M1330 1295 c-11 -13 -10 -14 4 -9 9 3 16 10 16 15 0 13 -6 11 -20 -6z"/>
<path d="M1148 1263 c7 -3 16 -2 19 1 4 3 -2 6 -13 5 -11 0 -14 -3 -6 -6z"/>
<path d="M446 1181 c-20 -22 -20 -45 -3 -60 20 -16 29 -1 11 17 -14 13 -14 17
0 31 13 12 20 13 34 5 36 -23 21 -117 -22 -130 -11 -4 -34 -16 -49 -27 -27
-18 -28 -23 -25 -79 l3 -59 -40 -22 c-51 -29 -67 -68 -39 -98 74 -82 316 -106
449 -45 91 41 111 86 56 127 -27 20 -28 23 -15 48 8 14 14 38 14 52 0 37 -45
79 -84 79 -18 0 -36 4 -41 9 -16 14 -88 28 -138 26 -38 -1 -46 2 -43 14 17 56
17 73 3 95 -21 31 -52 38 -71 17z m219 -165 c35 -15 62 -50 46 -61 -5 -3 -27
6 -48 21 -33 22 -47 25 -101 22 -54 -3 -62 -1 -62 15 0 14 10 17 65 17 36 0
81 -6 100 -14z m-182 -12 c-3 -9 -16 -27 -28 -40 -20 -22 -24 -23 -36 -8 -12
14 -10 20 14 40 33 28 59 32 50 8z m305 -42 c5 -9 8 -25 8 -36 -1 -22 -48 -60
-67 -54 -9 3 -2 10 16 19 37 18 44 52 16 76 -12 9 -21 21 -21 26 0 13 39 -12
48 -31z m-130 2 c13 -9 22 -20 19 -27 -8 -26 -146 -38 -200 -18 -24 10 -26 13
-15 31 16 25 30 25 46 0 7 -11 20 -20 30 -19 14 0 13 3 -5 16 -13 8 -23 19
-23 24 0 21 112 16 148 -7z m97 -23 c3 -5 1 -12 -5 -16 -5 -3 -10 1 -10 9 0
18 6 21 15 7z m-205 -55 c44 -2 81 3 113 14 51 20 56 14 30 -32 -59 -99 -203
-93 -262 12 l-23 41 39 -16 c21 -9 67 -18 103 -19z m-140 -36 c0 -5 -10 -12
-23 -15 -13 -4 -30 -18 -39 -32 -8 -14 -18 -22 -21 -17 -8 13 13 38 48 57 36
20 35 19 35 7z m381 -17 c29 -17 46 -43 29 -43 -6 0 -10 4 -10 9 0 5 -15 18
-32 30 -39 25 -28 28 13 4z m-18 -20 c17 -9 27 -22 27 -36 0 -19 -10 -27 -52
-43 -67 -24 -280 -26 -342 -2 -58 22 -68 43 -33 74 40 34 63 31 92 -16 28 -44
65 -57 137 -47 42 6 68 23 72 50 1 8 8 22 15 31 15 17 34 15 84 -11z m-227
-40 c18 -3 48 0 69 7 41 14 58 7 25 -10 -33 -17 -91 -20 -127 -5 -33 14 -48
33 -15 20 9 -4 31 -9 48 -12z"/>
<path d="M1040 550 c0 -5 5 -10 10 -10 6 0 10 5 10 10 0 6 -4 10 -10 10 -5 0
-10 -4 -10 -10z"/>
<path d="M701 531 c-10 -6 -12 -19 -7 -46 11 -56 5 -292 -7 -312 -4 -6 2 -21
12 -34 16 -20 21 -22 35 -10 9 8 15 20 12 28 -8 19 14 16 49 -7 17 -11 38 -20
48 -20 23 0 74 55 80 87 12 63 -46 163 -94 163 -15 0 -38 -9 -51 -20 -14 -10
-28 -17 -31 -14 -7 7 0 59 14 105 16 53 9 83 -21 87 -14 1 -31 -2 -39 -7z
m174 -225 c14 -21 14 -73 0 -96 -20 -32 -108 0 -113 41 -7 64 80 107 113 55z"/>
<path d="M781 276 c-7 -8 -8 -17 -3 -20 6 -3 15 1 21 8 7 8 8 17 3 20 -6 3
-15 -1 -21 -8z"/>
<path d="M973 524 c-3 -9 -1 -49 5 -88 6 -40 9 -81 7 -92 -2 -10 -6 -44 -9
-74 -3 -30 -8 -72 -12 -92 -5 -31 -3 -39 11 -44 20 -8 71 8 68 22 0 5 -4 65
-8 134 -7 120 -7 148 -2 215 2 26 -2 30 -26 33 -18 2 -29 -2 -34 -14z"/>
<path d="M1160 530 c0 -5 5 -10 10 -10 6 0 10 5 10 10 0 6 -4 10 -10 10 -5 0
-10 -4 -10 -10z"/>
<path d="M1107 518 c-21 -11 -22 -47 -2 -55 9 -3 24 2 35 12 31 28 3 64 -33
43z"/>
<path d="M230 510 c0 -5 5 -10 10 -10 6 0 10 5 10 10 0 6 -4 10 -10 10 -5 0
-10 -4 -10 -10z"/>
<path d="M274 490 c-85 -34 -83 -173 3 -195 56 -13 80 -55 45 -74 -27 -15 -68
15 -51 36 10 12 10 16 -2 24 -33 21 -59 0 -59 -47 0 -26 7 -37 34 -54 32 -19
37 -20 69 -6 44 18 67 51 67 97 0 37 -24 69 -52 69 -24 0 -68 39 -68 61 0 10
9 28 20 39 17 17 24 18 41 10 19 -11 20 -13 4 -37 -21 -31 -13 -53 19 -53 19
0 27 8 36 36 15 46 7 78 -25 92 -30 14 -51 14 -81 2z"/>
<path d="M1290 470 c0 -5 5 -10 11 -10 5 0 7 5 4 10 -3 6 -8 10 -11 10 -2 0
-4 -4 -4 -10z"/>
<path d="M1610 460 c0 -5 5 -10 10 -10 6 0 10 5 10 10 0 6 -4 10 -10 10 -5 0
-10 -4 -10 -10z"/>
<path d="M1669 456 c-18 -6 -39 -22 -46 -36 -18 -36 -17 -164 3 -202 15 -28
15 -30 0 -25 -9 4 -16 2 -16 -3 0 -5 10 -10 23 -10 12 1 36 -2 52 -5 52 -11
121 58 90 88 -19 19 -52 11 -58 -14 -3 -13 -14 -19 -31 -19 -14 0 -27 3 -27 8
-8 52 -6 54 53 56 32 1 60 5 64 9 3 3 8 25 11 49 3 31 -1 52 -15 74 -23 36
-55 45 -103 30z m72 -84 c8 -38 4 -42 -37 -42 -32 0 -33 2 -32 38 0 20 5 43
11 50 15 19 50 -8 58 -46z"/>
<path d="M551 441 c-8 -6 -9 -11 -3 -15 6 -3 14 -1 17 5 9 14 2 20 -14 10z"/>
<path d="M1248 444 c-3 -3 -3 -43 0 -89 3 -54 0 -101 -8 -130 -13 -48 -2 -79
25 -69 7 3 16 0 20 -5 7 -12 25 -5 25 9 0 5 -8 7 -17 3 -17 -6 -17 -5 -1 13
11 12 14 25 9 33 -12 18 14 110 37 133 11 11 25 16 35 12 14 -5 16 -17 11 -78
-3 -39 -7 -79 -10 -88 -7 -24 30 -42 56 -28 21 11 27 45 9 55 -12 8 -10 91 3
118 5 10 20 17 38 17 34 0 34 -1 20 -103 -6 -38 -7 -79 -4 -91 12 -48 94 -57
94 -11 0 17 -7 25 -22 27 -19 2 -23 10 -24 38 -1 19 4 55 11 80 12 48 5 98
-17 111 -21 14 -67 10 -94 -7 -23 -16 -26 -16 -37 0 -19 27 -76 24 -99 -4
l-19 -24 6 27 c10 38 -24 74 -47 51z"/>
<path d="M1310 441 c0 -6 5 -13 10 -16 6 -3 10 1 10 9 0 9 -4 16 -10 16 -5 0
-10 -4 -10 -9z"/>
<path d="M1090 420 c-8 -15 -6 -23 11 -39 21 -19 26 -66 17 -171 -3 -31 0 -35
24 -38 18 -2 30 3 37 16 6 11 8 21 6 24 -2 2 -7 49 -10 103 -4 55 -11 106 -17
112 -16 20 -56 15 -68 -7z"/>
<path d="M408 396 c-15 -11 -14 -14 14 -30 30 -18 30 -19 24 -80 -4 -33 -7
-72 -7 -86 1 -49 63 -74 125 -50 20 7 27 6 35 -8 8 -14 13 -15 28 -5 10 6 16
17 14 25 -22 72 -29 136 -20 165 13 40 5 69 -20 76 -27 7 -45 -8 -37 -29 13
-33 17 -133 7 -152 -11 -22 -53 -33 -72 -21 -12 7 -15 113 -5 166 8 38 -50 57
-86 29z"/>
<path d="M770 395 c0 -8 5 -15 10 -15 6 0 10 7 10 15 0 8 -4 15 -10 15 -5 0
-10 -7 -10 -15z"/>
<path d="M956 375 c4 -8 7 -15 9 -15 2 0 5 7 9 15 3 9 0 15 -9 15 -9 0 -12 -6
-9 -15z"/>
<path d="M1225 380 c3 -5 8 -10 11 -10 2 0 4 5 4 10 0 6 -5 10 -11 10 -5 0 -7
-4 -4 -10z"/>
<path d="M380 349 c0 -5 5 -7 10 -4 6 3 10 8 10 11 0 2 -4 4 -10 4 -5 0 -10
-5 -10 -11z"/>
<path d="M1085 350 c3 -5 11 -10 16 -10 6 0 7 5 4 10 -3 6 -11 10 -16 10 -6 0
-7 -4 -4 -10z"/>
<path d="M1475 320 c3 -5 10 -10 16 -10 5 0 9 5 9 10 0 6 -7 10 -16 10 -8 0
-12 -4 -9 -10z"/>
<path d="M636 251 c-4 -7 -5 -15 -2 -18 9 -9 19 4 14 18 -4 11 -6 11 -12 0z"/>
<path d="M305 240 c-3 -5 1 -10 10 -10 9 0 13 5 10 10 -3 6 -8 10 -10 10 -2 0
-7 -4 -10 -10z"/>
<path d="M505 220 c3 -5 8 -10 11 -10 2 0 4 5 4 10 0 6 -5 10 -11 10 -5 0 -7
-4 -4 -10z"/>
<path d="M1555 200 c-3 -5 1 -10 10 -10 9 0 13 5 10 10 -3 6 -8 10 -10 10 -2
0 -7 -4 -10 -10z"/>
<path d="M1770 200 c0 -5 5 -10 10 -10 6 0 10 5 10 10 0 6 -4 10 -10 10 -5 0
-10 -4 -10 -10z"/>
<path d="M210 170 c0 -5 7 -10 16 -10 8 0 12 5 9 10 -3 6 -10 10 -16 10 -5 0
-9 -4 -9 -10z"/>
<path d="M1185 170 c-3 -5 -1 -10 4 -10 6 0 11 5 11 10 0 6 -2 10 -4 10 -3 0
-8 -4 -11 -10z"/>
<path d="M935 150 c-3 -5 -1 -10 4 -10 6 0 11 5 11 10 0 6 -2 10 -4 10 -3 0
-8 -4 -11 -10z"/>
<path d="M430 140 c0 -5 5 -10 10 -10 6 0 10 5 10 10 0 6 -4 10 -10 10 -5 0
-10 -4 -10 -10z"/>
<path d="M660 140 c0 -5 5 -10 11 -10 5 0 7 5 4 10 -3 6 -8 10 -11 10 -2 0 -4
-4 -4 -10z"/>
<path d="M760 130 c0 -5 5 -10 11 -10 5 0 7 5 4 10 -3 6 -8 10 -11 10 -2 0 -4
-4 -4 -10z"/>
<path d="M1005 110 c-3 -5 -2 -10 4 -10 5 0 13 5 16 10 3 6 2 10 -4 10 -5 0
-13 -4 -16 -10z"/>
</g>
</svg>
